<svg width="125" height="94" viewBox="0 0 125 94" fill="none" xmlns="http://www.w3.org/2000/svg">
<path d="M124.445 86.0285C123.584 88.1342 121.989 88.8764 119.767 88.7917C116.917 88.6854 114.057 88.7917 111.202 88.7531C109.643 88.7337 108.763 87.6047 109.249 86.338C109.628 85.3468 110.484 85.1534 111.412 85.1485C114.067 85.1413 116.721 85.1461 119.376 85.1437C119.808 85.1437 120.241 85.1437 120.749 85.1437V3.80152H4.57731V85.1365H6.12694C29.7727 85.1365 53.4184 85.1365 77.0665 85.1389C77.5863 85.1389 78.1133 85.151 78.6258 85.2211C79.6581 85.3637 80.2335 86.0358 80.1948 87.0318C80.1561 88.0206 79.5614 88.6588 78.505 88.7337C78.1448 88.7579 77.7821 88.7652 77.4195 88.7652C53.4112 88.7652 29.4028 88.7652 5.39443 88.7652C2.15013 88.7652 0.888184 87.4887 0.888184 84.2299C0.888184 57.7242 0.888184 31.2186 0.888184 4.71293C0.888184 1.37676 2.15013 0.102724 5.45245 0.102724C43.4969 0.102724 81.539 0.114812 119.583 0.0712963C121.822 0.0688788 123.48 0.673258 124.445 2.75716V86.0285Z" fill="white"/>
<path d="M113.873 10.6237H11.4769V78.3021H12.8525C34.3273 78.3021 55.8045 78.3021 77.2793 78.3021C77.7217 78.3021 78.1714 78.2707 78.6041 78.3383C79.6195 78.4931 80.2142 79.1385 80.2045 80.1418C80.1948 81.0871 79.617 81.7084 78.6597 81.8728C78.2681 81.9404 77.8595 81.9187 77.4558 81.9187C55.657 81.9187 33.8607 81.9187 12.062 81.9187C8.98205 81.9187 7.73702 80.6882 7.73702 77.6083C7.73219 55.4856 7.73219 33.3629 7.73702 11.2378C7.73702 8.22312 8.99172 6.9515 11.9749 6.9515C45.7573 6.94667 79.5397 6.94667 113.322 6.9515C116.327 6.9515 117.589 8.20861 117.589 11.2063C117.594 33.3701 117.594 55.5339 117.589 77.6953C117.589 80.6761 116.313 81.9114 113.295 81.9139C112.532 81.9139 111.765 81.9453 111.004 81.8994C109.867 81.8341 109.113 81.0895 109.113 80.1007C109.113 79.112 109.875 78.3577 111.001 78.3045C111.922 78.2634 112.846 78.2948 113.868 78.2948V10.6237H113.873Z" fill="white"/>
<path d="M94.6612 88.1607C92.8964 89.5532 91.2235 90.8708 89.5554 92.1932C88.615 92.9402 87.6117 93.3512 86.444 92.7468C85.3417 92.1762 85.0443 91.1971 85.054 90.0246C85.0781 86.7682 85.0854 83.5119 85.037 80.2579C85.0298 79.7502 84.7228 79.2425 84.5269 78.7445C84.1909 77.896 83.8863 77.0305 83.4681 76.2255C83.1611 75.6332 82.8081 74.92 82.2762 74.6178C79.6436 73.1214 78.7902 70.6241 80.1609 67.8802C80.5235 67.1574 80.509 66.5626 80.1488 65.8471C78.7829 63.1249 79.6532 60.6325 82.298 59.1288C82.8299 58.8266 83.3279 58.1134 83.4584 57.5066C84.1256 54.4267 86.1467 52.9931 89.3088 53.3606C89.8842 53.4283 90.665 53.1358 91.1002 52.7393C93.4258 50.6119 95.9135 50.6264 98.2778 52.761C98.7299 53.1696 99.5784 53.4114 100.19 53.3292C102.99 52.952 105.388 54.55 105.794 57.3253C105.932 58.2706 106.316 58.8242 107.16 59.2472C109.657 60.4995 110.549 63.1926 109.265 65.6657C108.804 66.5554 108.857 67.271 109.299 68.134C110.532 70.5395 109.635 73.2568 107.215 74.4728C106.335 74.9152 105.876 75.476 105.779 76.4865C105.716 77.1369 105.463 77.8766 105.044 78.3577C104.37 79.1361 104.276 79.9605 104.285 80.9082C104.317 83.8817 104.288 86.8577 104.3 89.8312C104.305 91.0618 104.089 92.1666 102.849 92.7685C101.614 93.3681 100.616 92.8773 99.6485 92.0965C98.0239 90.7862 96.3728 89.5097 94.6612 88.1656V88.1607ZM84.2997 66.8793C84.0072 67.7182 83.792 68.487 83.4753 69.2098C82.9024 70.5201 82.9604 70.8948 84.2223 71.5186C85.8783 72.3381 86.7607 73.6411 87.0363 75.4422C87.2394 76.7549 87.6214 77.0474 88.922 76.7839C90.7521 76.4116 92.2243 76.9628 93.5032 78.261C94.4533 79.2256 94.8691 79.2474 95.8143 78.2924C97.1319 76.9604 98.6428 76.3971 100.502 76.8081C101.493 77.0281 102.148 76.6945 102.276 75.5897C102.506 73.6436 103.475 72.2317 105.298 71.4267C106.207 71.0254 106.454 70.3436 105.956 69.4709C104.953 67.711 104.979 65.9776 105.98 64.2201C106.442 63.4078 106.214 62.7333 105.349 62.3489C103.495 61.5221 102.489 60.0982 102.262 58.0941C102.155 57.1513 101.597 56.7113 100.681 56.9143C98.6863 57.3543 97.0473 56.808 95.6765 55.3164C94.9948 54.5742 94.2768 54.6346 93.6071 55.3623C92.2678 56.8128 90.6529 57.3592 88.7068 56.9192C87.7858 56.7113 87.179 57.1174 87.075 58.0409C86.8502 60.0523 85.8687 61.4834 84.0241 62.3223C83.1055 62.7406 82.9604 63.3909 83.3665 64.295C83.7364 65.1242 83.9903 66.0042 84.3021 66.8769L84.2997 66.8793ZM88.7431 88.2139C90.1791 87.0825 91.4024 86.1083 92.6377 85.1461C94.1414 83.976 95.1568 83.9664 96.6508 85.1171C97.9127 86.0889 99.1626 87.0801 100.674 88.2623C100.674 85.7819 100.63 83.5916 100.695 81.4038C100.722 80.4803 100.221 80.2289 99.5325 80.3207C99.0659 80.3812 98.5631 80.6785 98.2101 81.0121C95.9811 83.1251 93.334 83.1686 91.1654 81.0097C90.3943 80.2434 89.6497 80.0766 88.7407 80.6084V88.2115L88.7431 88.2139Z" fill="white"/>
<path d="M71.1071 40.8451C81.077 40.8451 91.0468 40.8451 101.017 40.8451C101.418 40.8451 101.822 40.833 102.223 40.8669C103.243 40.9563 103.872 41.5075 103.93 42.5422C103.988 43.5866 103.4 44.1934 102.402 44.3868C102.013 44.4617 101.604 44.4617 101.203 44.4617C81.1809 44.4641 61.1615 44.4641 41.1396 44.4641C40.939 44.4641 40.7383 44.4714 40.5376 44.4617C39.2129 44.3964 38.3909 43.7123 38.3667 42.6655C38.3425 41.5631 39.179 40.8499 40.5933 40.8499C50.7637 40.8403 60.9367 40.8451 71.1071 40.8451Z" fill="white"/>
<path d="M56.4377 32.9809C56.6383 31.8834 56.943 30.6673 57.0445 29.432C57.088 28.8905 56.8487 28.2015 56.4981 27.7784C55.785 26.9178 54.9002 26.2022 54.1 25.4117C53.394 24.7154 53.0556 23.8862 53.3626 22.895C53.6817 21.8652 54.4457 21.3285 55.4731 21.1617C56.6214 20.9755 57.7939 20.903 58.9205 20.6298C59.4064 20.5114 59.9334 20.098 60.209 19.6676C60.7264 18.865 61.0987 17.9633 61.4879 17.0833C61.9786 15.9785 62.6918 15.13 63.9852 15.1445C65.2157 15.159 65.9264 15.9543 66.3858 17.0326C66.6372 17.6224 67.0482 18.1591 67.2101 18.7683C67.6332 20.3591 68.7308 20.8377 70.2272 20.8716C70.9839 20.8885 71.743 21.036 72.4924 21.1738C73.4618 21.3527 74.1944 21.8458 74.5183 22.837C74.8422 23.8306 74.5449 24.6622 73.8462 25.3657C72.9977 26.2191 72.0718 27.0024 71.2692 27.8969C70.9815 28.2184 70.8026 28.7914 70.8437 29.2217C70.9621 30.457 71.2788 31.673 71.4094 32.906C71.6366 35.0527 69.8477 36.3171 67.8967 35.4008C66.8088 34.8907 65.7911 34.2211 64.6887 33.7521C64.2559 33.5684 63.6105 33.578 63.1777 33.7666C62.0415 34.2598 60.9947 34.9657 59.8633 35.4685C58.1009 36.2518 56.3265 34.9947 56.4401 32.9761L56.4377 32.9809ZM60.487 31.0203C62.8441 29.1298 65.0755 29.2313 67.4277 31.0058C66.3398 28.1942 67.1497 26.1418 69.5382 24.6018C68.1626 24.2247 66.8209 24.1787 65.9337 23.5212C65.032 22.8515 64.5751 21.5823 63.7918 20.3736C63.1439 23.2359 61.3646 24.5462 58.4007 24.4592C60.8013 26.1538 61.5773 28.2208 60.487 31.0203Z" fill="white"/>
<path d="M49.2797 54.7458C40.7966 54.7458 32.316 54.7458 23.8329 54.7434C23.3518 54.7434 22.8635 54.7483 22.3896 54.6806C21.4178 54.5404 20.8908 53.9384 20.8739 52.9617C20.8594 52.0431 21.3284 51.4338 22.2398 51.2429C22.6677 51.1534 23.1149 51.1292 23.5549 51.1292C40.7217 51.1244 57.886 51.1244 75.0528 51.1292C75.5315 51.1292 76.0247 51.1534 76.484 51.2767C77.3301 51.5015 77.8741 52.1833 77.671 52.9738C77.5114 53.5999 76.9312 54.2188 76.3776 54.6129C76.0174 54.8691 75.3671 54.7434 74.8449 54.7434C66.3232 54.7483 57.799 54.7483 49.2773 54.7483L49.2797 54.7458Z" fill="white"/>
<path d="M48.1167 65.0517C39.96 65.0517 31.8033 65.0517 23.6442 65.0517C23.2018 65.0517 22.6457 65.1871 22.346 64.9768C21.7803 64.5779 21.1396 64.0461 20.9341 63.432C20.6489 62.5835 21.2001 61.8655 22.0728 61.5947C22.5587 61.4448 23.1002 61.4376 23.6176 61.4376C39.9721 61.4303 56.3266 61.4303 72.6811 61.4327C74.5257 61.4327 75.4201 62.025 75.4322 63.2386C75.4443 64.4522 74.5474 65.0517 72.7101 65.0517C64.5123 65.0517 56.3145 65.0517 48.1191 65.0517H48.1167Z" fill="white"/>
<path d="M27.1374 44.4642C25.7715 44.4642 24.4056 44.4908 23.0397 44.4594C21.6158 44.4255 20.8398 43.7341 20.8664 42.5906C20.8906 41.4858 21.6279 40.8621 23.0131 40.8548C25.8247 40.8379 28.6387 40.8355 31.4503 40.8573C32.7412 40.8669 33.4641 41.5076 33.5027 42.5665C33.5414 43.6761 32.8017 44.411 31.4769 44.4545C30.0312 44.5029 28.5855 44.4666 27.1374 44.4666V44.4642Z" fill="white"/>
<path d="M94.6832 74.202C90.7039 74.2141 87.3871 70.9142 87.3678 66.9277C87.3484 62.9509 90.6507 59.6462 94.6493 59.6365C98.6551 59.6268 101.957 62.9001 101.972 66.8963C101.986 70.8562 98.66 74.1899 94.6807 74.202H94.6832ZM94.7315 63.2604C92.6911 63.2265 91.0279 64.8221 90.9844 66.8504C90.9433 68.8472 92.5944 70.5492 94.6058 70.5782C96.6148 70.6096 98.3094 68.9778 98.353 66.9737C98.3965 64.9647 96.7646 63.2918 94.7315 63.2579V63.2604Z" fill="white"/>
</svg>
